<?xml version="1.0" encoding="UTF-8"?>
<!-- Created with Inkscape (http://www.inkscape.org/) -->
<svg width="86.056mm" height="88.317mm" version="1.1" viewBox="0 0 86.056 88.317" xmlns="http://www.w3.org/2000/svg"><defs><clipPath id="clipPath6902"><path d="m0 1200h600v-1200h-600z"/></clipPath><clipPath id="clipPath6930"><path d="m406.76 654.63h153.47v-153.81h-153.47z"/></clipPath><clipPath id="clipPath6954"><path d="m237.35 558.95h96.973v-201.45h-96.973z"/></clipPath><clipPath id="clipPath6982"><path d="m246.69 654.66h186.57v-127.38h-186.57z"/></clipPath><clipPath id="clipPath7006"><path d="m459.08 536.36h109.72v-181.53h-109.72z"/></clipPath><clipPath id="clipPath7030"><path d="m300.03 400.29h196.84v-77.07h-196.84z"/></clipPath><clipPath id="clipPath7054"><path d="m318.32 574.36h170.31v-170.29h-170.31z"/></clipPath><clipPath id="clipPath7070"><path d="m316.28 576.39h174.37v-174.37h-174.37z"/></clipPath><linearGradient id="linearGradient7090" x2="1" gradientTransform="matrix(.90669 -174.36 -174.36 -.90669 403.01 576.39)" gradientUnits="userSpaceOnUse"><stop stop-color="#fff" offset="0"/><stop stop-color="#fff" offset=".09697"/><stop stop-color="#707274" offset=".4"/><stop stop-color="#fff" offset=".62424"/><stop stop-color="#707274" offset=".78182"/><stop stop-color="#fff" offset=".94546"/><stop stop-color="#fff" offset="1"/></linearGradient><clipPath id="clipPath7112"><path d="m302.2 548.87h156.42v-156.96h-156.42z"/></clipPath><clipPath id="clipPath7116"><path d="m445.11 534.46c-24.274 25.017-72.916 16.618-108.64-18.768-35.722-35.39-45.011-84.363-20.748-109.38 24.269-25.016 72.9-16.609 108.64 18.778 35.721 35.39 45.012 84.362 20.756 109.37"/></clipPath><mask id="mask7130" x="0" y="0" width="1" height="1" maskUnits="userSpaceOnUse"><path d="m-32768 32767h65535v-65535h-65535z" fill="url(#radialGradient7128)"/></mask><radialGradient id="radialGradient7128" cx="0" cy="0" r="1" gradientTransform="matrix(64.711,64.088,-43.933,45.296,384.34,482.61)" gradientUnits="userSpaceOnUse"><stop stop-color="#fff" offset="0"/><stop stop-color="#fff" offset=".0020558"/><stop stop-color="#fff" stop-opacity="0" offset="1"/></radialGradient><radialGradient id="radialGradient7148" cx="0" cy="0" r="1" gradientTransform="matrix(64.711,64.088,-43.933,45.296,384.34,482.61)" gradientUnits="userSpaceOnUse"><stop offset="0"/><stop offset=".0020558"/><stop offset="1"/></radialGradient><linearGradient id="linearGradient7188" x2="1" gradientTransform="matrix(152.71 .79409 .79409 -152.71 327.32 488.82)" gradientUnits="userSpaceOnUse"><stop stop-color="#fafbfc" offset="0"/><stop stop-color="#fafbfc" offset=".44247"/><stop stop-color="#d1d2d3" offset=".99821"/><stop stop-color="#d1d2d3" offset="1"/></linearGradient><linearGradient id="linearGradient7212" x2="1" gradientTransform="matrix(157.95 .82135 .82135 -157.95 324.7 488.81)" gradientUnits="userSpaceOnUse"><stop stop-color="#d1d2d3" offset="0"/><stop stop-color="#d1d2d3" offset=".001792"/><stop stop-color="#fafbfc" offset=".78911"/><stop stop-color="#fafbfc" offset="1"/></linearGradient><clipPath id="clipPath7254"><path d="m0 1200h600v-1200h-600z"/></clipPath></defs><g transform="translate(-46.555 -91.948)"><g transform="matrix(.73596 0 0 .75531 24.4 41.468)"><g transform="matrix(.35278 0 0 -.35278 -53.628 297.79)"><g clip-path="url(#clipPath6902)"><g transform="translate(406.76,630.02)"><path d="m0 0c0.131-0.909 0.691-2.769 1.733-3.242 0.829-0.375 2.214 0.053 3.906 1.208 2.849 2.486 6.465 3.852 10.203 3.852 8.673 0 15.727-7.193 15.727-16.037 0-8.841-7.054-16.036-15.727-16.036-3.876 0-7.595 1.461-10.493 4.112-1.566 1.015-2.85 1.371-3.625 1.013-1.034-0.479-1.591-2.32-1.724-3.233v-25.72c36.724-1.528 67.573-25.795 78.827-59.093l0.514-1.038 23.984 7.794c0.065 0.021 0.136 0.04 0.204 0.054 0.488 0.098 4.813 0.905 7.313-1.769 1.609-1.719 1.955-4.276 1.03-7.603-0.029-0.107-0.067-0.209-0.112-0.306-1.276-2.719-1.475-5.758-0.565-8.558 0.976-3.002 3.09-5.437 5.954-6.856 2.879-1.427 6.167-1.661 9.265-0.654 6.37 2.071 9.913 8.806 7.895 15.019-0.88 2.714-2.749 5.01-5.262 6.466-0.138 0.081-0.264 0.175-0.375 0.282-2.727 2.151-3.971 4.425-3.699 6.763 0.427 3.663 4.435 5.57 4.89 5.774 0.064 0.031 0.131 0.055 0.199 0.078l23.408 7.606-0.424 2.479c-0.032 0.196-0.027 0.388-3e-3 0.575-22.019 63.911-82.022 110.13-153.04 111.68z" fill="#f9a01d"/></g><g transform="translate(316.43,377.16)"><path d="m0 0c0.429 0.812 1.068 2.646 0.502 3.643-0.447 0.789-1.82 1.257-3.866 1.319-3.768-0.343-7.497 0.682-10.522 2.881-7.016 5.096-8.496 15.063-3.299 22.217 2.514 3.458 6.198 5.753 10.37 6.461 4.19 0.71 8.375-0.257 11.78-2.732 3.137-2.28 5.289-5.646 6.072-9.494 0.673-1.743 1.504-2.789 2.345-2.952 1.117-0.214 2.671 0.964 3.284 1.598l15.317 21.082c-19.763 15.964-32.405 40.387-32.405 67.769 0 8.122 1.115 15.984 3.195 23.443-0.228 0.384-0.334 0.844-0.252 1.318l0.424 2.48-23.983 7.794c-0.068 0.023-0.134 0.048-0.199 0.077-0.452 0.204-4.425 2.097-4.878 5.729-0.29 2.335 0.933 4.609 3.637 6.76 0.085 0.066 0.176 0.127 0.271 0.18 2.629 1.45 4.578 3.79 5.489 6.592 0.974 3.001 0.695 6.212-0.788 9.045-1.49 2.847-4.016 4.968-7.111 5.974-6.369 2.071-13.199-1.297-15.216-7.508-0.882-2.716-0.721-5.672 0.456-8.327 0.065-0.145 0.11-0.297 0.138-0.45 0.941-3.342 0.61-5.913-0.983-7.643-2.497-2.711-6.86-1.898-7.349-1.794-0.07 0.013-0.139 0.03-0.206 0.053l-23.208 7.54c-5.247-16.143-8.094-33.369-8.094-51.263 0-53.543 25.399-101.15 64.798-131.45z" fill="#49b975"/></g><g transform="translate(269.73,536.41)"><path d="m0 0c0.904-0.157 2.848-0.199 3.619 0.646 0.612 0.672 0.632 2.121 0.058 4.085-1.484 3.48-1.667 7.341-0.511 10.898 2.68 8.249 11.702 12.735 20.112 10.003 4.067-1.321 7.387-4.115 9.35-7.866 1.973-3.767 2.343-8.043 1.041-12.048-1.198-3.688-3.735-6.773-7.154-8.707-1.449-1.179-2.187-2.293-2.081-3.145 0.142-1.134 1.739-2.242 2.536-2.629l24.845-8.071c12.013 31.971 42.288 55 78.12 56.38 0.212 0.126 0.453 0.216 0.714 0.253l2.491 0.364v25.217c0 0.072 3e-3 0.143 0.011 0.215 0.055 0.491 0.627 4.854 3.942 6.407 2.132 0.998 4.672 0.537 7.551-1.37 0.09-0.059 0.177-0.128 0.255-0.201 2.193-2.054 5.021-3.183 7.966-3.183 6.531 0 11.843 5.452 11.843 12.151 0 6.703-5.312 12.154-11.843 12.154-2.853 0-5.615-1.069-7.777-3.008-0.12-0.108-0.249-0.198-0.386-0.273-2.888-1.925-5.436-2.403-7.571-1.424-3.351 1.537-3.925 5.938-3.98 6.435-8e-3 0.07-0.011 0.14-0.011 0.211v24.613l-1.04 0.152c-71.728-0.528-132.61-46.619-155.15-110.77z" fill="#1bbad0"/></g><g transform="translate(561.91,536.36)"><path d="m0 0-23.777-7.724c-0.824-0.404-2.42-1.514-2.547-2.652-0.103-0.901 0.733-2.087 2.353-3.338 3.248-1.944 5.665-4.96 6.819-8.516 2.679-8.248-1.981-17.18-10.39-19.914-1.661-0.538-3.364-0.807-5.059-0.807-2.454 0-4.886 0.561-7.13 1.675-3.81 1.887-6.623 5.13-7.922 9.134-1.2 3.688-0.962 7.676 0.667 11.251 0.478 1.8 0.422 3.133-0.159 3.759-0.773 0.835-2.696 0.796-3.606 0.641l-24.111-7.836c2.017-7.352 3.098-15.091 3.098-23.083 0-28.216-13.424-53.292-34.231-69.205-0.031-0.032-0.053-0.07-0.086-0.102l-1.802-1.759 14.821-20.4c0.043-0.06 0.081-0.118 0.118-0.18 0.244-0.429 2.347-4.297 0.578-7.501-1.136-2.06-3.464-3.18-6.915-3.332-0.11-2e-3 -0.218 0-0.325 0.016-2.979 0.371-5.932-0.379-8.314-2.11-2.553-1.856-4.215-4.617-4.682-7.779-0.466-3.18 0.33-6.379 2.243-9.013 3.938-5.422 11.441-6.707 16.724-2.868 2.308 1.675 3.914 4.162 4.523 7.001 0.034 0.157 0.085 0.306 0.154 0.446 1.202 3.256 2.981 5.142 5.287 5.606 3.61 0.727 6.668-2.497 7.004-2.867 0.046-0.053 0.092-0.106 0.134-0.164l14.467-19.912 2.07 1.087c40.593 30.206 66.889 78.55 66.889 133.04 0 16.476-2.416 32.389-6.893 47.41" fill="#f15928"/></g><g transform="translate(482.31,372.36)"><path d="m0 0c-0.638 0.661-2.189 1.835-3.309 1.604-0.889-0.183-1.758-1.343-2.447-3.27-0.846-3.688-2.966-6.919-5.993-9.116-7.016-5.1-16.953-3.423-22.15 3.727-2.512 3.461-3.557 7.673-2.942 11.861 0.62 4.206 2.836 7.884 6.242 10.358 3.135 2.279 6.998 3.288 10.906 2.84 1.86 0.104 3.11 0.567 3.526 1.315 0.555 0.993-0.077 2.811-0.507 3.625l-15.029 20.688c-13.666-8.919-29.991-14.111-47.528-14.111-18.036 0-34.79 5.483-48.688 14.875-0.39-0.055-0.797 2e-3 -1.172 0.201l-2.228 1.17-14.823-20.404c-0.043-0.056-0.087-0.111-0.135-0.164-0.334-0.366-3.364-3.547-6.955-2.868-2.31 0.444-4.095 2.312-5.305 5.548-0.038 0.1-0.068 0.207-0.087 0.314-0.567 2.945-2.192 5.524-4.575 7.255-2.553 1.855-5.695 2.581-8.845 2.047-3.167-0.538-5.966-2.283-7.879-4.919-3.938-5.42-2.844-12.953 2.439-16.791 2.308-1.679 5.17-2.437 8.06-2.139 0.157 0.016 0.315 0.014 0.467-6e-3 3.472-0.139 5.815-1.247 6.967-3.297 1.807-3.216-0.314-7.112-0.561-7.548-0.035-0.06-0.074-0.118-0.116-0.177l-14.387-19.802c27.418-20.084 61.232-31.951 97.823-31.951 34.817 0 67.123 10.746 93.794 29.089z" fill="#364a5a"/></g><g clip-path="url(#clipPath6930)" opacity=".2"><g transform="translate(556.92,538.83)"><path d="m0 0 3.301 1.073-0.424 2.48c-0.032 0.195-0.027 0.387-3e-3 0.574-22.019 63.912-82.022 110.13-153.04 111.68v-4.336c69.736-2.696 128.41-48.473 150.17-111.47" fill="#fff"/></g><g transform="translate(419.77,595.52)"><path d="m0 0c6.304 0 11.738 3.811 14.244 9.284-2.869-3.094-6.918-5.037-11.413-5.037-3.876 0-7.596 1.461-10.494 4.112-1.566 1.015-2.85 1.37-3.625 1.013-1.033-0.479-1.591-2.32-1.724-3.233v-0.917c0.698-0.113 1.554-0.485 2.518-1.109 2.898-2.652 6.618-4.113 10.494-4.113" fill="#fff"/></g><g transform="translate(535.8,519.4)"><path d="m0 0c-0.139 0.081-0.264 0.175-0.375 0.282-2.727 2.151-3.971 4.425-3.699 6.763 0.012 0.104 0.036 0.202 0.054 0.305-1.246-0.958-2.643-2.471-2.886-4.552-0.271-2.336 0.972-4.611 3.699-6.762 0.111-0.108 0.238-0.201 0.376-0.283 2.512-1.456 4.381-3.752 5.261-6.464 0.865-2.663 0.702-5.42-0.26-7.865 3.159 3.083 4.517 7.722 3.091 12.11-0.88 2.714-2.749 5.01-5.261 6.466" fill="#fff"/></g></g><g clip-path="url(#clipPath6954)" opacity=".2"><g transform="translate(316.14,381.49)"><path d="m0 0c-0.542 0.287-1.305 0.483-2.259 0.574 0.738-0.246 1.49-0.442 2.259-0.574" fill="#fff"/></g><g transform="translate(277.19,542.06)"><path d="m0 0c0.941-3.343 0.61-5.913-0.982-7.644-0.85-0.919-1.913-1.428-2.967-1.703l2.552-0.83c0.067-0.021 0.136-0.038 0.206-0.052 0.489-0.105 4.852-0.917 7.349 1.796 1.593 1.729 1.924 4.3 0.982 7.643-0.026 0.152-0.072 0.304-0.137 0.45-1.177 2.653-1.338 5.61-0.457 8.324 1.371 4.22 4.965 7.122 9.125 7.905-0.342 0.144-0.691 0.28-1.048 0.395-6.37 2.071-13.2-1.297-15.217-7.508-0.882-2.715-0.72-5.672 0.456-8.327 0.065-0.144 0.111-0.297 0.138-0.449" fill="#fff"/></g><g transform="translate(244.49,488.16)"><path d="m0 0c0 17.384 2.694 34.134 7.658 49.876l-6.705 2.178c-5.247-16.143-8.094-33.369-8.094-51.263 0-53.543 25.399-101.15 64.798-131.45l2.27 3.124c-36.603 30.397-59.927 76.233-59.927 127.53" fill="#fff"/></g><g transform="translate(328.53,410.16)"><path d="m0 0c-3.194 2.319-7.074 3.296-11 2.826 1.36-0.49 2.659-1.165 3.859-2.036 3.137-2.28 5.288-5.646 6.071-9.494 0.674-1.743 1.504-2.789 2.346-2.952 1.117-0.214 2.671 0.964 3.284 1.598l1.228 1.691c-0.947 3.374-2.963 6.313-5.788 8.367" fill="#fff"/></g></g><g clip-path="url(#clipPath6982)" opacity=".2"><g transform="translate(410.17,619.01)"><path d="m0 0c2.135-0.979 4.684-0.501 7.571 1.425 0.137 0.074 0.266 0.164 0.387 0.272 2.161 1.94 4.924 3.007 7.777 3.007 2.78 0 5.335-0.994 7.357-2.646-1.915 4.071-5.967 6.894-10.661 6.894-2.852 0-5.615-1.069-7.776-3.008-0.121-0.108-0.25-0.198-0.387-0.273-2.888-1.925-5.436-2.403-7.571-1.424-0.07 0.032-0.132 0.073-0.2 0.108 0.503-1.517 1.51-3.44 3.503-4.355" fill="#fff"/></g><g transform="translate(402.87,650.38)"><path d="m0 0v4.133l-1.04 0.152c-71.728-0.528-132.61-46.619-155.15-110.77l4.332-1.409c23.067 61.996 82.171 106.44 151.86 107.89" fill="#fff"/></g><g transform="translate(299.55,529.17)"><path d="m0 0c3.418 1.934 5.955 5.021 7.153 8.708 1.302 4.005 0.932 8.281-1.04 12.047-0.871 1.664-2.023 3.127-3.375 4.37 0.023-0.044 0.051-0.081 0.072-0.123 1.972-3.767 2.342-8.043 1.041-12.048-1.199-3.687-3.736-6.772-7.154-8.707-1.449-1.179-2.188-2.293-2.082-3.144 0.143-1.134 1.74-2.243 2.536-2.629l1.113-0.361c0.341 0.584 0.922 1.225 1.736 1.887" fill="#fff"/></g></g><g clip-path="url(#clipPath7006)" opacity=".2"><g transform="translate(510.05,519.23)"><path d="m0 0c0.581-0.626 0.637-1.959 0.158-3.759-1.628-3.575-1.866-7.563-0.667-11.251 1.301-4.004 4.113-7.247 7.922-9.135 2.244-1.113 4.676-1.674 7.131-1.674 0.805 0 1.611 0.066 2.414 0.185-1.662 0.242-3.291 0.727-4.829 1.489-3.809 1.888-6.622 5.131-7.922 9.135-1.2 3.688-0.962 7.676 0.668 11.251 0.477 1.8 0.421 3.133-0.16 3.759-0.773 0.835-2.696 0.796-3.606 0.641l-1.357-0.441c0.088-0.062 0.177-0.124 0.248-0.2" fill="#fff"/></g><g transform="translate(473.53,377.77)"><path d="m0 0c-2.306-0.464-4.086-2.351-5.286-5.606-0.07-0.14-0.121-0.29-0.155-0.446-0.609-2.84-2.216-5.326-4.523-7.001-1.377-1.001-2.904-1.645-4.48-1.967 3.125-0.625 6.457-0.022 9.195 1.967 2.308 1.675 3.914 4.161 4.523 7.001 0.035 0.156 0.085 0.306 0.155 0.446 0.983 2.662 2.358 4.394 4.085 5.196-1.04 0.426-2.242 0.666-3.514 0.41" fill="#fff"/></g><g transform="translate(561.91,536.36)"><path d="m0 0-4.312-1.4c4.214-14.611 6.489-30.042 6.489-46.01 0-53.947-25.788-101.86-65.696-132.12l1.453-1.999 2.07 1.087c40.593 30.206 66.889 78.55 66.889 133.04 0 16.476-2.416 32.389-6.893 47.41" fill="#fff"/></g></g><g clip-path="url(#clipPath7030)" opacity=".2"><g transform="translate(451.71,392.71)"><path d="m0 0c-3.406-2.474-5.622-6.153-6.242-10.359-0.244-1.66-0.216-3.322 0.05-4.94 0.67 4.101 2.855 7.685 6.192 10.108 3.135 2.279 6.999 3.288 10.906 2.839 1.86 0.105 3.11 0.568 3.526 1.316 0.555 0.993-0.077 2.81-0.507 3.625l-0.539 0.744c-0.617-0.266-1.451-0.437-2.48-0.494-3.907 0.449-7.771-0.562-10.906-2.839" fill="#fff"/></g><g transform="translate(403.08,328.41)"><path d="m 0,0 c -35.495,0 -68.378,11.169 -95.344,30.172 l -2.478,-3.411 C -70.405,6.677 -36.59,-5.19 0,-5.19 c 34.818,0 67.123,10.746 93.795,29.088 l -2.531,3.486 C 65.09,10.082 33.724,0 0,0" fill="#fff"/></g><g transform="translate(312.88,386)"><path d="m0 0c0.157 0.017 0.315 0.015 0.467-6e-3 3.471-0.139 5.815-1.247 6.967-3.297 0.092-0.164 0.169-0.331 0.241-0.499 0.502 1.528 0.858 3.733-0.241 5.69-1.152 2.049-3.496 3.159-6.967 3.296-0.152 0.022-0.31 0.024-0.467 6e-3 -2.89-0.297-5.752 0.461-8.061 2.14-2.395 1.741-3.918 4.242-4.513 6.96-0.981-4.509 0.629-9.327 4.513-12.15 2.309-1.679 5.171-2.438 8.061-2.14" fill="#fff"/></g></g><g clip-path="url(#clipPath7054)" opacity=".2"><g transform="translate(318.32,488.78)"><path d="m0 0c-0.246 46.942 37.762 85.342 84.713 85.581 46.951 0.241 85.347-37.758 85.596-84.696 0.24-46.954-37.763-85.354-84.714-85.595-46.949-0.244-85.356 37.754-85.595 84.71" fill="#fff"/></g></g><g clip-path="url(#clipPath7070)" opacity=".5"><path d="m318.32 488.78c-0.246 46.943 37.763 85.342 84.713 85.581 46.951 0.242 85.347-37.757 85.596-84.696 0.241-46.954-37.763-85.353-84.714-85.595-46.949-0.244-85.356 37.754-85.595 84.71m172.33 0.895c-0.249 48.141-39.475 86.976-87.628 86.722-48.158-0.25-86.986-39.475-86.739-87.628 0.25-48.146 39.49-86.992 87.643-86.736 48.15 0.25 86.971 39.498 86.724 87.642" fill="url(#linearGradient7090)"/></g><g clip-path="url(#clipPath7112)" opacity=".3"><g clip-path="url(#clipPath7116)"><g mask="url(#mask7130)"><path d="m445.11 534.46c-24.274 25.017-72.916 16.618-108.64-18.768-35.722-35.39-45.011-84.363-20.748-109.38 24.269-25.016 72.9-16.609 108.64 18.778 35.721 35.39 45.012 84.362 20.756 109.37" fill="url(#radialGradient7148)"/></g></g></g></g></g></g><g transform="matrix(.25963 0 0 -.26646 -15.068 266.39)"><path d="m403.28 565.56c-42.104-0.217-76.173-34.636-75.953-76.744 0.217-42.098 34.643-76.176 76.746-75.96 42.104 0.223 76.179 34.654 75.962 76.753-0.218 41.961-34.412 75.955-76.334 75.953-0.139 0-0.283-1e-3 -0.421-2e-3" fill="url(#linearGradient7188)"/><path d="m403.26 568.19c-43.624-0.227-78.791-35.759-78.564-79.39 0.228-43.616 35.758-78.78 79.379-78.55 43.613 0.218 78.797 35.749 78.571 79.377-0.226 43.485-35.55 78.564-78.971 78.564-0.139 0-0.277 0-0.415-1e-3m-75.941-79.367c-0.22 42.108 33.849 76.527 75.953 76.744 42.112 0.229 76.537-33.851 76.755-75.951 0.217-42.099-33.858-76.53-75.962-76.753-0.131-1e-3 -0.267-1e-3 -0.398-1e-3 -41.924-3e-3 -76.132 33.994-76.348 75.961" fill="url(#linearGradient7212)"/></g><text transform="scale(1.0074 .99268)" x="79.423096" y="133.64941" fill="#f15928" font-family="'Segoe UI'" font-size="7.1018px" font-weight="bold" stroke-width=".37267" style="font-variant-caps:normal;font-variant-east-asian:normal;font-variant-ligatures:normal;font-variant-numeric:normal"><tspan x="79.423096" y="133.64941" fill="#000000" font-family="'Segoe UI'" font-size="7.1018px" font-weight="bold" stroke-width=".37267" style="font-variant-caps:normal;font-variant-east-asian:normal;font-variant-ligatures:normal;font-variant-numeric:normal">SOLID</tspan></text><g transform="matrix(.25963 0 0 -.26646 -14.484 262.79)"><g clip-path="url(#clipPath7254)"><g transform="translate(383.57,476.84)"><path d="m0 0c-0.65 0-1.176-0.523-1.176-1.176 0-0.656 0.526-1.182 1.176-1.182 0.653 0 1.181 0.526 1.181 1.182 0 0.653-0.528 1.176-1.181 1.176" fill="#808285"/></g><g transform="translate(378.78,476.84)"><path d="m0 0c-0.658 0-1.184-0.523-1.184-1.176 0-0.656 0.526-1.182 1.184-1.182 0.653 0 1.181 0.526 1.181 1.182 0 0.653-0.528 1.176-1.181 1.176" fill="#808285"/></g><g transform="translate(373.97,476.84)"><path d="m0 0c-0.645 0-1.172-0.523-1.172-1.176 0-0.656 0.527-1.182 1.172-1.182 0.653 0 1.181 0.526 1.181 1.182 0 0.653-0.528 1.176-1.181 1.176" fill="#808285"/></g><g transform="translate(369.18,476.84)"><path d="m0 0c-0.654 0-1.181-0.523-1.181-1.176 0-0.656 0.527-1.182 1.181-1.182 0.651 0 1.177 0.526 1.177 1.182 0 0.653-0.526 1.176-1.177 1.176" fill="#808285"/></g><g transform="translate(364.39,476.84)"><path d="m0 0c-0.653 0-1.183-0.523-1.183-1.176 0-0.656 0.53-1.182 1.183-1.182 0.651 0 1.183 0.526 1.183 1.182 0 0.653-0.532 1.176-1.183 1.176" fill="#808285"/></g><g transform="translate(359.59,476.84)"><path d="m0 0c-0.65 0-1.178-0.523-1.178-1.176 0-0.656 0.528-1.182 1.178-1.182 0.648 0 1.181 0.526 1.181 1.182 0 0.653-0.533 1.176-1.181 1.176" fill="#808285"/></g><g transform="translate(354.79,476.84)"><path d="m0 0c-0.65 0-1.18-0.523-1.18-1.176 0-0.656 0.53-1.182 1.18-1.182 0.656 0 1.182 0.526 1.182 1.182 0 0.653-0.526 1.176-1.182 1.176" fill="#808285"/></g><g transform="translate(350,476.84)"><path d="m0 0c-0.652 0-1.178-0.523-1.178-1.176 0-0.656 0.526-1.182 1.178-1.182 0.657 0 1.182 0.526 1.182 1.182 0 0.653-0.525 1.176-1.182 1.176" fill="#808285"/></g><g transform="translate(402.66,476.84)"><path d="m0 0c-0.654 0-1.181-0.523-1.181-1.176 0-0.656 0.527-1.182 1.181-1.182 0.652 0 1.179 0.526 1.179 1.182 0 0.653-0.527 1.176-1.179 1.176" fill="#808285"/></g><g transform="translate(397.87,476.84)"><path d="m0 0c-0.647 0-1.182-0.523-1.182-1.176 0-0.656 0.535-1.182 1.182-1.182 0.648 0 1.183 0.526 1.183 1.182 0 0.653-0.535 1.176-1.183 1.176" fill="#808285"/></g><g transform="translate(393.06,476.84)"><path d="m0 0c-0.649 0-1.176-0.523-1.176-1.176 0-0.656 0.527-1.182 1.176-1.182 0.659 0 1.185 0.526 1.185 1.182 0 0.653-0.526 1.176-1.185 1.176" fill="#808285"/></g><g transform="translate(388.27,476.84)"><path d="m0 0c-0.655 0-1.179-0.523-1.179-1.176 0-0.656 0.524-1.182 1.179-1.182 0.651 0 1.179 0.526 1.179 1.182 0 0.653-0.528 1.176-1.179 1.176" fill="#808285"/></g><g transform="translate(436.48,476.84)"><path d="m0 0c-0.654 0-1.179-0.523-1.179-1.176 0-0.656 0.525-1.182 1.179-1.182 0.653 0 1.183 0.526 1.183 1.182 0 0.653-0.53 1.176-1.183 1.176" fill="#808285"/></g><g transform="translate(431.69,476.84)"><path d="m0 0c-0.654 0-1.183-0.523-1.183-1.176 0-0.656 0.529-1.182 1.183-1.182 0.653 0 1.179 0.526 1.179 1.182 0 0.653-0.526 1.176-1.179 1.176" fill="#808285"/></g><g transform="translate(426.89,476.84)"><path d="m0 0c-0.646 0-1.172-0.523-1.172-1.176 0-0.656 0.526-1.182 1.172-1.182 0.655 0 1.181 0.526 1.181 1.182 0 0.653-0.526 1.176-1.181 1.176" fill="#808285"/></g><g transform="translate(422.1,476.84)"><path d="m0 0c-0.656 0-1.18-0.523-1.18-1.176 0-0.656 0.524-1.182 1.18-1.182 0.648 0 1.175 0.526 1.175 1.182 0 0.653-0.527 1.176-1.175 1.176" fill="#808285"/></g><g transform="translate(417.3,476.84)"><path d="m0 0c-0.654 0-1.182-0.523-1.182-1.176 0-0.656 0.528-1.182 1.182-1.182 0.653 0 1.181 0.526 1.181 1.182 0 0.653-0.528 1.176-1.181 1.176" fill="#808285"/></g><g transform="translate(412.51,476.84)"><path d="m0 0c-0.652 0-1.176-0.523-1.176-1.176 0-0.656 0.524-1.182 1.176-1.182 0.647 0 1.182 0.526 1.182 1.182 0 0.653-0.535 1.176-1.182 1.176" fill="#808285"/></g><g transform="translate(407.7,476.84)"><path d="m0 0c-0.647 0-1.175-0.523-1.175-1.176 0-0.656 0.528-1.182 1.175-1.182 0.659 0 1.184 0.526 1.184 1.182 0 0.653-0.525 1.176-1.184 1.176" fill="#808285"/></g><g transform="translate(455.57,476.84)"><path d="m0 0c-0.652 0-1.18-0.523-1.18-1.176 0-0.656 0.528-1.182 1.18-1.182 0.65 0 1.177 0.526 1.177 1.182 0 0.653-0.527 1.176-1.177 1.176" fill="#808285"/></g><g transform="translate(450.78,476.84)"><path d="m0 0c-0.649 0-1.182-0.523-1.182-1.176 0-0.656 0.533-1.182 1.182-1.182s1.18 0.526 1.18 1.182c0 0.653-0.531 1.176-1.18 1.176" fill="#808285"/></g><g transform="translate(445.98,476.84)"><path d="m0 0c-0.653 0-1.179-0.523-1.179-1.176 0-0.656 0.526-1.182 1.179-1.182 0.656 0 1.184 0.526 1.184 1.182 0 0.653-0.528 1.176-1.184 1.176" fill="#808285"/></g><g transform="translate(441.19,476.84)"><path d="m0 0c-0.656 0-1.184-0.523-1.184-1.176 0-0.656 0.528-1.182 1.184-1.182 0.651 0 1.177 0.526 1.177 1.182 0 0.653-0.526 1.176-1.177 1.176" fill="#808285"/></g></g></g><g transform="translate(-10.651 .14201)" fill="#fafdfd"><g font-family="'Segoe UI'" font-weight="bold"><text transform="scale(.98713 1.013)" x="78.060158" y="109.01515" font-size="6.5098px" stroke-width=".26301" style="font-variant-caps:normal;font-variant-east-asian:normal;font-variant-ligatures:normal;font-variant-numeric:normal"><tspan x="78.060158" y="109.01515" font-family="'Segoe UI'" font-size="6.5098px" font-weight="bold" stroke-width=".26301" style="font-variant-caps:normal;font-variant-east-asian:normal;font-variant-ligatures:normal;font-variant-numeric:normal">SRP</tspan></text><text transform="scale(.85032 1.176)" x="131.61003" y="94.166756" font-size="6.5098px" stroke-width=".30533" style="font-variant-caps:normal;font-variant-east-asian:normal;font-variant-ligatures:normal;font-variant-numeric:normal"><tspan x="131.61003" y="94.166756" font-family="'Segoe UI'" font-size="6.5098px" font-weight="bold" stroke-width=".30533" style="font-variant-caps:normal;font-variant-east-asian:normal;font-variant-ligatures:normal;font-variant-numeric:normal">OCP</tspan></text><text transform="scale(.98713 1.013)" x="64.413918" y="142.29553" font-size="5.1676px" stroke-width=".26302"><tspan x="64.413918" y="142.29553" font-size="6.3125px" style="font-variant-caps:normal;font-variant-east-asian:normal;font-variant-ligatures:normal;font-variant-numeric:normal">DIP</tspan><tspan x="64.413918" y="149.15488"/></text></g><text transform="scale(.98712 1.013)" x="93.011948" y="168.96539" font-family="'Montserrat Semi Bold'" font-size="4.5699px" font-weight="600" stroke-width=".26302"><tspan x="93.011948" y="168.96539" font-family="'Segoe UI'" font-size="6.3125px" font-weight="bold" stroke-width=".26302" style="font-variant-caps:normal;font-variant-east-asian:normal;font-variant-ligatures:normal;font-variant-numeric:normal">ISP</tspan></text></g><text transform="scale(.98708 1.0131)" x="85.12989" y="123.72996" fill="#f9a01d" font-family="'Montserrat Semi Bold'" font-size="7.5216px" font-weight="600" stroke-width=".26302"><tspan x="85.12989 88.965889 91.598442" y="123.72996" stroke-width=".26302">&lt;/&gt;</tspan></text><g transform="translate(-10.651 .14201)"><text transform="matrix(.19472 0 0 .19984 -1.6287 86.783)" font-family="sans-serif" font-size="40px" style="line-height:1.25;shape-inside:url(#rect95078);white-space:pre" xml:space="preserve"/><text transform="scale(.72827 1.3731)" x="115.0924" y="104.95012" font-family="'Segoe UI'" font-size="5.0342px" font-weight="bold" stroke-width=".14141" style="font-variant-caps:normal;font-variant-east-asian:normal;font-variant-ligatures:normal;font-variant-numeric:normal;line-height:1.25" xml:space="preserve"><tspan x="115.0924" y="104.95012" font-family="'Segoe UI'" font-size="5.0342px" font-weight="bold" stroke-width=".14141" style="font-variant-caps:normal;font-variant-east-asian:normal;font-variant-ligatures:normal;font-variant-numeric:normal">5 principles of OOD</tspan></text><text transform="matrix(.19472 0 0 .19984 -1.6287 86.783)" font-family="sans-serif" font-size="40px" style="line-height:1.25;shape-inside:url(#rect15102);white-space:pre" xml:space="preserve"/><text transform="matrix(.19472 0 0 .19984 -1.6287 86.783)" font-family="sans-serif" font-size="40px" style="line-height:1.25;shape-inside:url(#rect31424);white-space:pre" xml:space="preserve"/></g><text transform="scale(.98708 1.0131)" x="113.81142" y="149.32581" fill="#ffffff" font-family="'Segoe UI'" font-size="6.3126px" font-weight="bold" stroke-width=".19727" style="font-variant-caps:normal;font-variant-east-asian:normal;font-variant-ligatures:normal;font-variant-numeric:normal;line-height:1.25" xml:space="preserve"><tspan x="113.81142" y="149.32581" fill="#ffffff" font-family="'Segoe UI'" font-size="6.3126px" font-weight="bold" stroke-width=".19727" style="font-variant-caps:normal;font-variant-east-asian:normal;font-variant-ligatures:normal;font-variant-numeric:normal">LSP</tspan></text></g></svg>
